<svg width="28" height="28" viewBox="0 0 28 28" fill="currentColor" xmlns="http://www.w3.org/2000/svg">
<path d="M22.8047 4.15626C22.836 4.18407 22.8672 4.21188 22.8994 4.24054C25.4278 6.4991 26.9192 9.75325 27.125 13.125C27.2503 16.7126 26.0875 20.1334 23.6353 22.7808C22.5595 23.9225 21.348 24.8101 19.9609 25.5391C19.9254 25.5581 19.8898 25.5771 19.8531 25.5967C18.6707 26.2211 17.3379 26.5883 16.0234 26.7969C15.9825 26.8039 15.9415 26.8109 15.8992 26.8182C13.8758 27.1571 11.6772 26.8627 9.75146 26.2124C9.67386 26.1864 9.67386 26.1864 9.59469 26.1598C9.32339 26.0631 9.08485 25.9531 8.84207 25.7976C8.38764 25.514 8.01148 25.3184 7.46778 25.439C7.31506 25.4795 7.16405 25.5248 7.01282 25.5705C6.92933 25.5941 6.84579 25.6174 6.76218 25.6406C6.58545 25.6897 6.40901 25.7398 6.23271 25.7904C5.82753 25.906 5.41916 26.0092 5.01099 26.1136C4.78226 26.1723 4.55375 26.2318 4.32523 26.2912C4.23364 26.315 4.14206 26.3388 4.05048 26.3626C3.9822 26.3804 3.9822 26.3804 3.91254 26.3985C3.72415 26.4474 3.53575 26.4963 3.34735 26.5452C3.16305 26.593 2.97876 26.6409 2.79447 26.6887C2.70796 26.7112 2.62146 26.7336 2.53495 26.7561C2.41478 26.7873 2.29462 26.8185 2.17447 26.8497C2.13728 26.8594 2.10009 26.869 2.06177 26.879C1.7965 26.948 1.53254 27.0211 1.26931 27.0975C1.14844 27.125 1.14844 27.125 0.929688 27.125C1.07221 26.5468 1.22143 25.9709 1.37787 25.3964C1.3994 25.3171 1.42093 25.2378 1.44245 25.1585C1.48756 24.9923 1.53273 24.8261 1.57795 24.6599C1.63635 24.4453 1.69456 24.2306 1.75273 24.0158C2.16944 22.4776 2.16944 22.4776 2.38126 21.7424C2.3948 21.6951 2.40834 21.6478 2.42229 21.599C2.48122 21.3933 2.54089 21.1879 2.60228 20.9829C2.62197 20.9146 2.64167 20.8463 2.66196 20.7759C2.68726 20.6909 2.68726 20.6909 2.71308 20.6042C2.73866 20.4227 2.70688 20.3417 2.625 20.1797C2.59453 20.1153 2.59453 20.1153 2.56344 20.0497C2.54124 20.005 2.51905 19.9604 2.49619 19.9144C0.856348 16.5794 0.604434 12.9266 1.80276 9.4013C1.94275 9.00788 2.11059 8.63127 2.29688 8.25782C2.32024 8.2108 2.3436 8.16377 2.36766 8.11531C2.65707 7.53763 2.95525 6.97649 3.33594 6.45314C3.37393 6.40027 3.41193 6.34739 3.45108 6.29292C4.25101 5.20275 5.18747 4.18132 6.28906 3.39064C6.34588 3.34904 6.4027 3.30745 6.46124 3.2646C8.31098 1.94467 10.4772 1.09994 12.7422 0.875012C12.8021 0.86895 12.862 0.862887 12.9238 0.856641C16.5411 0.546107 20.1055 1.74439 22.8047 4.15626ZM6.00879 6.68556C4.16463 8.77478 3.11853 11.606 3.28894 14.3995C3.41172 16.1934 3.88365 18.1436 4.94465 19.6321C4.9702 19.6683 4.99574 19.7045 5.02206 19.7418C5.05789 19.7892 5.05789 19.7892 5.09444 19.8377C5.24384 20.2365 4.98658 20.7878 4.87723 21.1771C4.85643 21.2521 4.83566 21.3271 4.81493 21.4021C4.76061 21.5984 4.70597 21.7945 4.65121 21.9907C4.56334 22.3055 4.47576 22.6205 4.38857 22.9355C4.3581 23.0453 4.32735 23.155 4.29659 23.2648C4.27816 23.3312 4.25972 23.3977 4.24072 23.4661C4.22437 23.5247 4.20802 23.5832 4.19118 23.6436C4.14987 23.7907 4.14987 23.7907 4.15625 23.9531C4.62558 23.8776 5.08005 23.764 5.5386 23.6398C5.612 23.6201 5.68541 23.6005 5.75883 23.581C6.0677 23.4986 6.37643 23.4158 6.68503 23.3325C6.87495 23.2812 7.06501 23.2304 7.25516 23.18C7.32723 23.1607 7.39924 23.1413 7.47121 23.1217C7.57142 23.0944 7.67182 23.0677 7.77223 23.0411C7.8292 23.0258 7.88616 23.0105 7.94485 22.9947C8.18377 22.9531 8.32739 23.0234 8.53082 23.1431C11.1062 24.627 14.0239 25.0512 16.9129 24.3108C18.6929 23.8256 20.2749 22.8703 21.6016 21.6016C21.6522 21.5538 21.7029 21.506 21.7552 21.4567C22.1463 21.0784 22.4838 20.6724 22.8047 20.2344C22.8274 20.2034 22.8502 20.1724 22.8736 20.1405C24.563 17.806 25.1645 14.9304 24.7485 12.1018C24.4863 10.5149 23.8667 8.95671 22.9141 7.65626C22.8727 7.59937 22.8313 7.54248 22.7887 7.48387C22.4802 7.06792 22.1417 6.68473 21.7839 6.31078C21.7217 6.24564 21.6603 6.17974 21.599 6.11369C19.736 4.15916 16.9719 3.17945 14.3281 3.06251C11.1126 2.99282 8.19638 4.38172 6.00879 6.68556Z" fill="currentColor"/>
<path d="M9.72409 7.81006C9.7804 7.80905 9.7804 7.80905 9.83784 7.80803C10.0936 7.8073 10.315 7.83072 10.5547 7.92969C10.8196 8.19532 10.9424 8.49114 11.0802 8.8363C11.1027 8.89142 11.1253 8.94653 11.1485 9.00331C11.22 9.17842 11.2907 9.35385 11.3613 9.5293C11.4096 9.64809 11.4579 9.76687 11.5063 9.88562C11.6124 10.1459 11.7179 10.4063 11.823 10.667C11.8533 10.7401 11.8865 10.812 11.9218 10.8828C11.9798 11.1522 11.96 11.3583 11.8293 11.6027C11.5867 11.9564 11.3179 12.2819 11.0278 12.5982C10.907 12.7907 10.9072 12.901 10.9375 13.125C11.0215 13.3083 11.0215 13.3083 11.146 13.4839C11.1679 13.5165 11.1898 13.5492 11.2124 13.5828C12.2692 15.1315 13.6952 16.4077 15.4765 17.0625C15.6953 17.0825 15.7721 17.0835 15.9585 16.9634C16.268 16.6764 16.5191 16.3269 16.7743 15.9922C16.799 15.9599 16.8237 15.9275 16.8491 15.8942C16.8972 15.8309 16.9451 15.7674 16.9928 15.7036C17.16 15.4825 17.16 15.4825 17.2812 15.4219C17.8045 15.3802 18.2598 15.6618 18.7099 15.8901C18.7869 15.9284 18.864 15.9666 18.9411 16.0047C19.133 16.0999 19.3244 16.1962 19.5157 16.2927C19.6368 16.3536 19.7582 16.4139 19.8797 16.4742C19.9196 16.494 19.9595 16.5138 20.0007 16.5342C20.0768 16.572 20.153 16.6097 20.2292 16.6474C20.3837 16.7242 20.528 16.8026 20.6718 16.8984C20.8538 17.4443 20.6748 18.1646 20.4428 18.6724C20.038 19.398 19.2245 19.8362 18.4536 20.0763C17.5685 20.2855 16.5956 20.1485 15.75 19.8516C15.7053 19.8363 15.6606 19.8211 15.6146 19.8054C14.4531 19.4039 13.3522 18.8835 12.3593 18.1563C12.3253 18.1315 12.2913 18.1067 12.2563 18.0811C11.7261 17.6898 11.2468 17.2464 10.7734 16.7891C10.7448 16.7617 10.7163 16.7343 10.6868 16.7061C10.3206 16.3543 9.99531 15.9831 9.67966 15.5859C9.60219 15.4936 9.52472 15.4014 9.44723 15.3091C8.35808 13.9709 7.31392 12.41 7.43747 10.6094C7.53806 9.63633 7.94638 8.83659 8.64059 8.14844C8.99086 7.86718 9.28549 7.81046 9.72409 7.81006Z" fill="currentColor"/>
</svg>
